<svg xmlns="http://www.w3.org/2000/svg" width="360" height="90"><path fill="#F5B619" d="M129.412 48.329h6.375c-.296 5.837-1.896 10.228-4.801 13.173-2.905 2.945-7.114 4.418-12.628 4.418-6.159 0-11.035-1.883-14.625-5.648-3.591-3.766-5.386-8.849-5.386-15.251 0-6.213 1.997-11.27 5.991-15.17 3.994-3.9 9.192-5.85 15.594-5.85 4.761 0 8.661 1.143 11.7 3.429s4.559 5.164 4.559 8.634c0 2.152-.598 3.866-1.795 5.144s-2.804 1.916-4.821 1.916c-1.802 0-3.241-.518-4.317-1.553-1.076-1.036-1.614-2.427-1.614-4.176 0-1.291.444-2.401 1.331-3.329.888-.928 2.044-1.473 3.47-1.634-1.237-1.022-2.501-1.768-3.793-2.239-1.291-.471-2.73-.706-4.317-.706-3.362 0-5.991 1.358-7.888 4.075-1.896 2.717-2.844 6.509-2.844 11.378 0 4.519.861 7.901 2.582 10.147 1.721 2.246 4.304 3.369 7.746 3.369 2.797 0 4.976-.827 6.536-2.481s2.541-4.204 2.945-7.646z"/><path fill="#F5B619" d="M164.965 59.787c-1.641 2.125-3.55 3.692-5.729 4.7-2.179 1.009-4.734 1.513-7.666 1.513-3.47 0-6.307-.995-8.513-2.986-2.206-1.99-3.308-4.546-3.308-7.666 0-2.986.941-5.406 2.824-7.262 1.883-1.856 5.11-3.483 9.683-4.882 1.076-.35 2.824-.82 5.245-1.412s4.021-1.143 4.801-1.654c.995-.646 1.701-1.378 2.118-2.199.417-.82.625-1.849.625-3.086 0-2.017-.733-3.571-2.199-4.66-1.466-1.089-3.571-1.634-6.314-1.634-1.775 0-3.288.195-4.539.585s-2.36 1.002-3.329 1.836h.282c1.614 0 2.885.397 3.813 1.19.928.793 1.392 1.903 1.392 3.329 0 1.587-.531 2.865-1.594 3.833s-2.468 1.452-4.216 1.452c-1.937 0-3.524-.598-4.761-1.795s-1.856-2.75-1.856-4.66c0-3.066 1.459-5.554 4.378-7.464 2.918-1.91 6.812-2.865 11.68-2.865 2.77 0 5.225.242 7.363.726 2.138.484 3.893 1.183 5.265 2.098 1.587 1.049 2.703 2.38 3.349 3.994.646 1.614.968 4.304.968 8.069v17.349c0 .968.155 1.681.464 2.138.309.457.787.686 1.432.686.995 0 1.668-.524 2.017-1.573.35-1.049.525-3.55.525-7.504h5.043v1.735c0 5.057-.8 8.701-2.401 10.934-1.6 2.232-4.216 3.349-7.847 3.349-2.448 0-4.404-.504-5.87-1.513s-2.506-2.576-3.125-4.701zm-.161-15.695c-1.13.538-2.69 1.224-4.68 2.058-6.133 2.663-9.199 5.393-9.199 8.19 0 1.506.444 2.67 1.331 3.49.888.82 2.152 1.231 3.793 1.231 2.69 0 4.821-.908 6.395-2.723 1.573-1.816 2.36-4.324 2.36-7.524v-4.722z"/><path fill="#F2C819" d="M266.958 45.262c-2.206-2.044-5.729-3.645-10.571-4.801l-7.504-1.735c-1.587-.377-2.757-.908-3.51-1.594-.753-.686-1.13-1.553-1.13-2.602 0-1.452.558-2.589 1.674-3.409 1.116-.82 2.656-1.231 4.62-1.231 2.959 0 5.5.834 7.625 2.501 2.125 1.668 3.604 3.994 4.438 6.98h5.608v-14.443h-4.72l-1.816 3.066c-1.829-1.345-3.712-2.347-5.648-3.006-1.937-.659-3.981-.989-6.133-.989-4.546 0-8.204 1.13-10.974 3.389-2.77 2.259-4.156 5.218-4.156 8.876 0 3.039 1.036 5.548 3.107 7.524 2.071 1.977 5.245 3.49 9.522 4.539l6.133 1.452c2.582.646 4.384 1.352 5.406 2.118s1.533 1.768 1.533 3.006c0 1.56-.632 2.804-1.896 3.732-1.264.928-2.945 1.392-5.043 1.392-3.443 0-6.301-.941-8.573-2.824s-3.799-4.599-4.579-8.15h-6.052v4.962c0 2.047-.508 3.353-1.151 4.045-.567.609-1.404.918-3.561.918s-3.051-.303-3.697-.908c-.646-.605-.968-1.957-.968-4.055v-28.522h-18.519v5.568h3.792c1.937 0 3.221.296 3.853.888.632.592.948 1.937.948 4.035v10.086c0 4.142-.914 7.397-2.744 9.764-1.829 2.367-4.304 3.551-7.424 3.551-2.152 0-3.705-.619-4.66-1.856s-1.432-3.295-1.432-6.173v-25.863h-16.622v5.568h1.896c1.91 0 3.187.296 3.833.888.646.592.968 1.937.968 4.035v15.372c0 5.191.975 8.89 2.925 11.095 1.95 2.206 5.158 3.308 9.622 3.308 2.367 0 4.7-.686 7-2.058 2.3-1.372 4.512-3.389 6.637-6.052v6.859h24.79l1.493-2.985c2.206 1.56 4.344 2.683 6.415 3.369 2.071.686 4.33 1.029 6.778 1.029 4.922 0 8.782-1.13 11.579-3.389 2.797-2.259 4.196-5.353 4.196-9.28 0-3.283-1.102-5.946-3.308-7.99z"/><path fill="#F5B619" d="M305.914 50.548h6.939c-.592 4.788-2.508 8.56-5.749 11.317s-7.39 4.135-12.446 4.135c-6.294 0-11.31-1.903-15.049-5.709-3.739-3.806-5.608-8.896-5.608-15.271 0-6.294 1.89-11.371 5.669-15.231 3.779-3.86 8.775-5.79 14.988-5.79 5.998 0 10.571 1.863 13.718 5.588s4.72 9.138 4.72 16.239h-27.839c.161 4.411 1.096 7.773 2.804 10.086s4.109 3.47 7.202 3.47c3.174 0 5.574-.679 7.202-2.037s2.777-3.624 3.449-6.797zm-3.752-10.571c-.242-3.604-.975-6.24-2.199-7.908-1.224-1.668-3.019-2.501-5.386-2.501-2.421 0-4.391.881-5.911 2.643-1.52 1.762-2.522 4.351-3.006 7.767h16.502z"/><path fill="#F5B619" d="M318.3 64.991v-15.936h6.052c.78 3.55 2.306 6.267 4.579 8.15 2.273 1.883 5.131 2.824 8.573 2.824 2.098 0 3.779-.464 5.043-1.392 1.264-.928 1.896-2.172 1.896-3.732 0-1.237-.511-2.239-1.533-3.006s-2.824-1.473-5.406-2.118l-6.133-1.452c-4.277-1.049-7.451-2.562-9.522-4.539-2.071-1.977-3.107-4.485-3.107-7.524 0-3.658 1.385-6.617 4.156-8.876s6.43-3.39 10.976-3.39c2.152 0 4.196.329 6.133.988 1.937.659 3.819 1.661 5.648 3.006l1.816-3.066h4.72v14.444h-5.608c-.834-2.986-2.313-5.312-4.438-6.98-2.125-1.668-4.667-2.501-7.625-2.501-1.964 0-3.503.41-4.62 1.231-1.116.82-1.674 1.957-1.674 3.409 0 1.049.377 1.916 1.13 2.602.753.686 1.923 1.217 3.51 1.594l7.504 1.735c4.841 1.157 8.365 2.757 10.571 4.801 2.206 2.044 3.308 4.707 3.308 7.988 0 3.927-1.399 7.02-4.196 9.28-2.797 2.259-6.657 3.389-11.579 3.389-2.448 0-4.707-.343-6.778-1.029-2.071-.686-4.209-1.809-6.415-3.369l-1.493 3.47h-5.488z"/><polygon points="6.789,35.712 6.789,35.713 20.749,42.121" fill="none"/><polygon points="51.692,34.208 73.954,23.353 73.975,23.342 51.692,34.208" fill="none"/><polygon points="80.862,19.977 52.765,23.753 80.856,19.98" fill="none"/><polygon points="34.677,18.068 34.677,18.063 34.672,18.059 20.749,42.121 20.763,42.116" fill="none"/><path d="M34.672 18.059l-.053-.018.053.018z" fill="none"/><path d="M36.321 33.022c-.366-3.511-1.02-9.386-1.384-12.644l1.384 12.644z" fill="none"/><path d="M14.164 70.157l-2.914-4.434c.872 1.53 1.842 3.012 2.914 4.434z" fill="none"/><path d="M54.496 3.793l-.027-.004-1.704 19.964 1.731-19.96z" fill="none"/><polygon points="11.169,65.579 11.169,65.579 21.088,63.238" fill="none"/><polygon fill="#C82E21" points="41.901,62.593 21.088,63.238 14.24,70.256 14.244,70.26 41.902,62.599"/><polygon fill="#3DB54A" points="41.97,62.557 41.952,62.61 60.042,74.593 53.754,52.984"/><polygon fill="#8DC342" points="60.042,74.593 65.591,64.367 65.591,64.367 78.272,41 53.754,52.984"/><polygon fill="#3DB54A" points="51.702,34.218 51.686,34.22 53.754,52.984 78.272,41 51.699,34.215"/><path fill="#F7941E" d="M36.628 35.893l5.298 26.699 9.756-28.372c-.418.05-14.2 1.682-15.054 1.673z"/><polygon fill="#F7941E" points="41.901,62.593 41.902,62.599 41.926,62.593"/><polygon fill="#F7941E" points="41.926,62.593 41.952,62.61 41.97,62.557"/><path fill="#F48522" d="M36.628 35.893l-.043-.007v-.01l-15.825 6.245.003-.005-.013.005 21.146 20.441-5.268-26.669z"/><polygon fill="#F48522" points="36.628,35.893 36.628,35.893 41.895,62.562 41.926,62.593"/><polygon fill="#F5B619" points="51.692,34.208 73.975,23.342 80.856,19.98 52.765,23.753 51.686,34.202"/><path fill="#F7941E" d="M36.321 33.022l-1.384-12.644-.259-2.31-13.915 24.048 15.822-6.243c.014-.092-.093-1.208-.264-2.851z"/><polygon fill="#F7941E" points="20.763,42.116 20.76,42.121 36.585,35.877 36.585,35.873"/><path fill="#F47621" d="M36.321 33.022l.31 2.836 15.053-1.646-17-16.142.253 2.308c.364 3.257 1.018 9.133 1.384 12.644z"/><polygon fill="#F47621" points="34.677,18.063 34.677,18.068 34.679,18.065"/><polygon fill="#F47621" points="51.692,34.208 51.685,34.211 51.692,34.208"/><polygon fill="#F47621" points="51.702,34.218 51.699,34.215 51.685,34.211 51.686,34.22"/><path fill="#F47621" d="M36.631 35.858l-.01.004.006.031c.854.009 14.636-1.624 15.054-1.673l.003-.009-15.053 1.646v.001z"/><path fill="#F47621" d="M36.585 35.877v.01l.043.007-.006-.031-.037.014z"/><polygon fill="#F47621" points="51.686,34.202 51.685,34.211 51.692,34.208"/><path fill="#F47621" d="M36.321 33.022c.171 1.644.278 2.759.264 2.851l.036-.014.01-.001-.31-2.836z"/><path fill="#F47621" d="M34.684 18.07l-.005-.005-.002.003.259 2.31-.252-2.308z"/><rect x="36.621" y="35.858" fill="#F47621" width=".01" height=".004"/><rect x="36.583" y="35.866" transform="matrix(.93 -.367 .367 .93 -10.604 15.925)" fill="#F47621" width=".039" height=".004"/><polygon fill="#F47621" points="36.622,35.862 36.622,35.862 36.621,35.858"/><polygon fill="#F48522" points="52.765,23.753 34.729,18.076 51.686,34.202"/><polygon fill="#F48522" points="34.676,18.06 34.672,18.059 34.677,18.063"/><polygon fill="#F48522" points="34.684,18.07 51.685,34.211 51.686,34.202 34.729,18.076 34.683,18.062"/><rect x="34.676" y="18.061" fill="#F48522" width=".005" height=".003"/><rect x="34.681" y="18.062" fill="#F48522" width=".002" height=".008"/><path fill="#9E1F17" d="M15.703 17.938c-1.064 1.255-2.073 2.577-3.005 3.982-2.871 4.333-4.82 9.007-5.909 13.792l13.96 6.409-5.046-24.183z"/><path fill="#E73427" d="M34.672 18.059l-16.45-2.847c-.875.863-1.712 1.775-2.519 2.726l5.046 24.184 13.923-24.063z"/><path fill="#C82E21" d="M34.62 18.041l-14.228-4.812c-.742.634-1.468 1.291-2.17 1.983l16.45 2.847-.052-.018z"/><path fill="#14A4C6" d="M65.591 64.367l16.832 3.644c.983-1.49 1.847-3.022 2.616-4.582l-6.767-22.429-12.681 23.367z"/><polygon fill="#14A4C6" points="65.591,64.367 78.272,41 65.591,64.367"/><path fill="#13BFE6" d="M76.094 75.512c2.327-2.182 4.447-4.656 6.286-7.431l.031-.05-16.693-3.53 10.376 11.011z"/><polygon fill="#13BFE6" points="65.591,64.367 65.591,64.367 65.591,64.367"/><path fill="#13BFE6" d="M65.591 64.367l.126.134 16.693 3.53.012-.02-16.831-3.644z"/><path fill="#13BFE6" d="M85.102 63.3c.488-.998.938-2.007 1.34-3.027l-1.527-.091 2.098-1.433c1.079-3.092 1.768-6.264 2.095-9.451l-10.836-8.298 6.83 22.3z"/><path fill="#13BFE6" d="M86.442 60.272c.199-.506.392-1.014.571-1.524l-2.098 1.433 1.527.091z"/><path fill="#13BFE6" d="M85.038 63.429l.064-.13-6.83-22.299 6.766 22.429z"/><polygon fill="#3DB54A" points="80.877,19.977 80.883,19.974 80.862,19.977 80.856,19.98"/><path fill="#3DB54A" d="M73.975 23.342l-.021.01 4.318 17.648 5.446-16.918c-.819-1.419-1.722-2.796-2.714-4.122l-.128.017-6.901 3.365z"/><polygon fill="#3DB54A" points="73.975,23.342 80.877,19.977 80.856,19.98"/><polygon fill="#3DB54A" points="80.877,19.977 81.004,19.96 81.003,19.958 80.883,19.974"/><path fill="#F2C819" d="M80.862 19.977l.113-.055c-2.793-3.724-6.253-7.044-10.355-9.762-5.035-3.335-10.529-5.426-16.124-6.367l-1.731 19.96 28.097-3.776z"/><polygon fill="#F2C819" points="80.883,19.974 80.979,19.927 80.975,19.922 80.862,19.977"/><path fill="#F2C819" d="M81.003 19.958l-.024-.031-.096.047.12-.016z"/><polygon fill="#F7941E" points="34.676,18.055 34.672,18.059 34.676,18.06"/><path fill="#F7941E" d="M34.729 18.076l18.036 5.676 1.704-19.964c-1.218-.204-2.441-.357-3.665-.452l-16.112 14.705.037.035z"/><polygon fill="#F7941E" points="34.681,18.061 34.683,18.059 34.683,18.062 34.729,18.076 34.692,18.041 34.676,18.055 34.676,18.06"/><polygon fill="#F7941E" points="34.683,18.059 34.681,18.061 34.683,18.062"/><path fill="#F48522" d="M34.676 18.055l-.004-.033.02.019 16.112-14.704c-6.524-.505-13.08.526-19.112 2.992l2.98 11.73.004-.004z"/><path fill="#F48522" d="M34.672 18.022l.004.033.016-.014-.02-.019z"/><path fill="#7D1B68" d="M41.922 62.698l-.019-.098-27.659 7.66c2.769 3.649 6.18 6.907 10.215 9.58 5.138 3.404 10.755 5.511 16.469 6.423l.994-23.565z"/><polygon fill="#7D1B68" points="41.902,62.599 41.922,62.698 41.922,62.697 41.926,62.593"/><polygon fill="#7D1B68" points="41.902,62.599 41.902,62.599 41.926,62.593"/><path fill="#98297E" d="M41.952 62.61l-.029.085-.805 23.6c1.427.221 2.858.369 4.29.441l14.633-12.142-18.089-11.984z"/><polygon fill="#98297E" points="41.923,62.695 41.952,62.61 41.926,62.593"/><path fill="#98297E" d="M41.922 62.697l-.994 23.566.19.031.805-23.6-.001.003z"/><polygon fill="#98297E" points="41.922,62.697 41.923,62.695 41.926,62.593"/><path fill="#DA0D83" d="M45.427 86.737c6.732.334 13.46-.964 19.58-3.773l-4.966-8.371-14.614 12.144z"/><path fill="#DA0D83" d="M45.408 86.736l.019.001 14.614-12.144-14.633 12.143z"/><path fill="#94D5EA" d="M65.539 64.463l-5.497 10.13.166.081 10.463 5.146c1.909-1.267 3.72-2.711 5.423-4.308l-10.377-11.011-.178-.038z"/><polygon fill="#94D5EA" points="65.591,64.367 65.591,64.367 60.042,74.593 65.539,64.463 65.539,64.463"/><polygon fill="#94D5EA" points="65.717,64.501 65.591,64.367 65.539,64.463"/><path fill="#EE4498" d="M65.007 82.964c1.956-.898 3.852-1.943 5.662-3.144l-10.628-5.226 4.966 8.37z"/><polygon fill="#EE4498" points="60.042,74.593 70.67,79.82 70.67,79.819 60.208,74.674"/><path fill="#F47621" d="M34.672 18.059l-2.98-11.73c-4.063 1.661-7.883 3.977-11.3 6.9l14.228 4.812.052.018z"/><path fill="#F47621" d="M20.392 13.229l14.228 4.812-14.228-4.812z"/><path fill="#BCD236" d="M89.035 40.106c-.664-5.604-2.454-11.054-5.298-15.992l-5.465 16.886 10.763-.894z"/><path fill="#BCD236" d="M83.736 24.114l-.018-.032-5.446 16.918 5.464-16.886z"/><path fill="#94D5EA" d="M89.108 49.296c.315-3.07.287-6.151-.073-9.19l-10.763.894 10.836 8.296z"/><polygon fill="#E73427" points="41.895,62.562 20.749,42.121 21.088,63.238 41.901,62.593"/><polygon fill="#E73427" points="41.895,62.562 41.901,62.593 41.926,62.593"/><path fill="#C82E21" d="M20.749 42.121l-13.96-6.408c-.386 1.697-.663 3.408-.833 5.123l15.132 22.401-.339-21.116z"/><path fill="#9E1F17" d="M5.953 40.865c-.844 8.562.982 17.216 5.216 24.714l9.919-2.341-15.135-22.373z"/><path fill="#9E1F17" d="M5.956 40.836l-.003.029 15.136 22.372-15.133-22.401z"/><polygon fill="#8DC63F" points="41.97,62.557 53.754,52.984 51.686,34.22 51.682,34.22"/><polygon fill="#8DC63F" points="51.682,34.22 41.926,62.593 41.97,62.557 51.682,34.22"/><polygon fill="#8DC63F" points="51.686,34.22 51.685,34.211 51.682,34.22"/><polygon fill="#8DC63F" points="51.682,34.22 51.685,34.211 51.682,34.22"/><polygon fill="#8DC63F" points="51.699,34.215 78.272,41 73.954,23.353 51.692,34.208"/><polygon fill="#8DC63F" points="51.692,34.208 51.685,34.211 51.699,34.215"/><path fill="#E73427" d="M14.164 70.157l.069.106.007-.007-.076-.099z"/><path fill="#E73427" d="M11.25 65.723l-.081-.144-.012.003.093.141z"/><path fill="#E73427" d="M14.164 70.157l.076.099 6.848-7.018-9.919 2.341.081.144 2.914 4.434z"/><polygon fill="#E73427" points="14.24,70.256 14.24,70.256 21.088,63.238"/></svg>